<svg xmlns="http://www.w3.org/2000/svg" viewBox="0 0 1000 330" width="1000" height="330" role="img" aria-label="CestaZen">
  <g color="#4B7672">
    <g transform="translate(5 5)">
    <circle cx="160" cy="160" r="112" fill="none" stroke="currentColor" stroke-width="9" stroke-linecap="round" stroke-linejoin="round"/>
    <path d="M294 160L295.39 162.36L296.7 164.77L297.9 167.23L298.95 169.72L299.83 172.23L300.51 174.77L300.96 177.31L301.17 179.84L301.13 182.35L300.83 184.83L300.26 187.26L299.44 189.64L298.38 191.95L297.08 194.18L295.58 196.33L293.89 198.39L292.05 200.37L290.09 202.27L288.03 204.08L285.92 205.83L283.79 207.52L281.66 209.16L279.59 210.76L277.58 212.35L275.68 213.94L273.89 215.55L272.25 217.19L270.76 218.89L269.42 220.65L268.25 222.5L267.24 224.44L266.38 226.47L265.66 228.61L265.05 230.86L264.55 233.21L264.13 235.65L263.75 238.18L263.4 240.79L263.04 243.44L262.65 246.13L262.19 248.84L261.65 251.52L260.99 254.17L260.2 256.76L259.25 259.25L258.14 261.63L256.86 263.87L255.39 265.94L253.74 267.84L251.92 269.54L249.92 271.05L247.77 272.34L245.47 273.42L243.04 274.3L240.51 274.98L237.89 275.48L235.21 275.81L232.48 276L229.74 276.07L227 276.05L224.28 275.97L221.6 275.86L218.98 275.75L216.42 275.68L213.94 275.68L211.54 275.76L209.22 275.97L206.99 276.31L204.84 276.8L202.75 277.46L200.73 278.29L198.76 279.3L196.83 280.48L194.93 281.81L193.03 283.29L191.14 284.89L189.22 286.58L187.28 288.35L185.3 290.16L183.27 291.96L181.18 293.74L179.04 295.45L176.83 297.06L174.56 298.53L172.23 299.83L169.86 300.94L167.43 301.82L164.98 302.47L162.49 302.87L160 303L157.51 302.87L155.02 302.47L152.57 301.82L150.14 300.94L147.77 299.83L145.44 298.53L143.17 297.06L140.96 295.45L138.82 293.74L136.73 291.96L134.7 290.16L132.72 288.35L130.78 286.58L128.86 284.89L126.97 283.29L125.07 281.81L123.17 280.48L121.24 279.3L119.27 278.29L117.25 277.46L115.16 276.8L113.01 276.31L110.78 275.97L108.46 275.76L106.06 275.68L103.58 275.68L101.02 275.75L98.4 275.86L95.72 275.97L93 276.05L90.26 276.07L87.52 276L84.79 275.81L82.11 275.48L79.49 274.98L76.96 274.3L74.53 273.42L72.23 272.34L70.08 271.05L68.08 269.54L66.26 267.84L64.61 265.94L63.14 263.87L61.86 261.63L60.75 259.25L59.8 256.76L59.01 254.17L58.35 251.52L57.81 248.84L57.35 246.13L56.96 243.44L56.6 240.79L56.25 238.18L55.87 235.65L55.45 233.21L54.95 230.86L54.34 228.61L53.62 226.47L52.76 224.44L51.75 222.5L50.58 220.65L49.24 218.89L47.75 217.19L46.11 215.55L44.32 213.94L42.42 212.35L40.41 210.76L38.34 209.16L36.21 207.52L34.08 205.83L31.97 204.08L29.91 202.27L27.95 200.37L26.11 198.39L24.42 196.33L22.92 194.18L21.62 191.95L20.56 189.64L19.74 187.26L19.17 184.83L18.87 182.35L18.83 179.84L19.04 177.31L19.49 174.77L20.17 172.23L21.05 169.72L22.1 167.23L23.3 164.77L24.61 162.36L26 160L27.43 157.69L28.86 155.42L30.26 153.2L31.6 151.02L32.85 148.88L33.98 146.75L34.96 144.65L35.78 142.54L36.43 140.43L36.9 138.29L37.19 136.13L37.3 133.92L37.25 131.66L37.05 129.34L36.71 126.97L36.28 124.52L35.76 122.02L35.2 119.45L34.63 116.83L34.08 114.17L33.59 111.47L33.18 108.76L32.89 106.05L32.75 103.35L32.79 100.68L33.02 98.07L33.46 95.52L34.13 93.07L35.03 90.73L36.16 88.5L37.52 86.41L39.1 84.45L40.89 82.65L42.87 81L45.02 79.49L47.31 78.13L49.72 76.9L52.21 75.79L54.77 74.79L57.35 73.87L59.93 73.01L62.49 72.2L64.99 71.4L67.41 70.59L69.75 69.75L71.97 68.85L74.08 67.86L76.06 66.78L77.92 65.58L79.65 64.24L81.27 62.77L82.77 61.15L84.18 59.39L85.52 57.48L86.79 55.45L88.03 53.29L89.24 51.04L90.46 48.72L91.71 46.35L93 43.95L94.35 41.57L95.79 39.23L97.31 36.96L98.94 34.81L100.68 32.79L102.54 30.93L104.51 29.27L106.6 27.82L108.79 26.6L111.09 25.62L113.48 24.9L115.95 24.42L118.48 24.19L121.06 24.19L123.67 24.42L126.3 24.85L128.94 25.45L131.56 26.21L134.16 27.08L136.73 28.04L139.26 29.04L141.74 30.06L144.17 31.05L146.55 32L148.88 32.85L151.16 33.59L153.41 34.19L155.62 34.64L157.82 34.91L160 35L162.18 34.91L164.38 34.64L166.59 34.19L168.84 33.59L171.12 32.85L173.45 32L175.83 31.05L178.26 30.06L180.74 29.04L183.27 28.04L185.84 27.08L188.44 26.21L191.06 25.45L193.7 24.85L196.33 24.42L198.94 24.19L201.52 24.19L204.05 24.42L206.52 24.9L208.91 25.62L211.21 26.6L213.4 27.82L215.49 29.27L217.46 30.93L219.32 32.79L221.06 34.81L222.69 36.96L224.21 39.23L225.65 41.57L227 43.95L228.29 46.35L229.54 48.72L230.76 51.04L231.97 53.29L233.21 55.45L234.48 57.48L235.82 59.39L237.23 61.15L238.73 62.77L240.35 64.24L242.08 65.58L243.94 66.78L245.92 67.86L248.03 68.85L250.25 69.75L252.59 70.59L255.01 71.4L257.51 72.2L260.07 73.01L262.65 73.87L265.23 74.79L267.79 75.79L270.28 76.9L272.69 78.13L274.98 79.49L277.13 81L279.11 82.65L280.9 84.45L282.48 86.41L283.84 88.5L284.97 90.73L285.87 93.07L286.54 95.52L286.98 98.07L287.21 100.68L287.25 103.35L287.11 106.05L286.82 108.76L286.41 111.47L285.92 114.17L285.37 116.83L284.8 119.45L284.24 122.02L283.72 124.52L283.29 126.97L282.95 129.34L282.75 131.66L282.7 133.92L282.81 136.13L283.1 138.29L283.57 140.43L284.22 142.54L285.04 144.65L286.02 146.75L287.15 148.88L288.4 151.02L289.74 153.2L291.14 155.42L292.57 157.69Z" fill="none" stroke="currentColor" stroke-width="9" stroke-linecap="round" stroke-linejoin="round"/>
    <path d="M294 160L292.57 162.31L291.14 164.58L289.74 166.8L288.4 168.98L287.15 171.12L286.02 173.25L285.04 175.35L284.22 177.46L283.57 179.57L283.1 181.71L282.81 183.87L282.7 186.08L282.75 188.34L282.95 190.66L283.29 193.03L283.72 195.48L284.24 197.98L284.8 200.55L285.37 203.17L285.92 205.83L286.41 208.53L286.82 211.24L287.11 213.95L287.25 216.65L287.21 219.32L286.98 221.93L286.54 224.48L285.87 226.93L284.97 229.27L283.84 231.5L282.48 233.59L280.9 235.55L279.11 237.35L277.13 239L274.98 240.51L272.69 241.87L270.28 243.1L267.79 244.21L265.23 245.21L262.65 246.13L260.07 246.99L257.51 247.8L255.01 248.6L252.59 249.41L250.25 250.25L248.03 251.15L245.92 252.14L243.94 253.22L242.08 254.42L240.35 255.76L238.73 257.23L237.23 258.85L235.82 260.61L234.48 262.52L233.21 264.55L231.97 266.71L230.76 268.96L229.54 271.28L228.29 273.65L227 276.05L225.65 278.43L224.21 280.77L222.69 283.04L221.06 285.19L219.32 287.21L217.46 289.07L215.49 290.73L213.4 292.18L211.21 293.4L208.91 294.38L206.52 295.1L204.05 295.58L201.52 295.81L198.94 295.81L196.33 295.58L193.7 295.15L191.06 294.55L188.44 293.79L185.84 292.92L183.27 291.96L180.74 290.96L178.26 289.94L175.83 288.95L173.45 288L171.12 287.15L168.84 286.41L166.59 285.81L164.38 285.36L162.18 285.09L160 285L157.82 285.09L155.62 285.36L153.41 285.81L151.16 286.41L148.88 287.15L146.55 288L144.17 288.95L141.74 289.94L139.26 290.96L136.73 291.96L134.16 292.92L131.56 293.79L128.94 294.55L126.3 295.15L123.67 295.58L121.06 295.81L118.48 295.81L115.95 295.58L113.48 295.1L111.09 294.38L108.79 293.4L106.6 292.18L104.51 290.73L102.54 289.07L100.68 287.21L98.94 285.19L97.31 283.04L95.79 280.77L94.35 278.43L93 276.05L91.71 273.65L90.46 271.28L89.24 268.96L88.03 266.71L86.79 264.55L85.52 262.52L84.18 260.61L82.77 258.85L81.27 257.23L79.65 255.76L77.92 254.42L76.06 253.22L74.08 252.14L71.97 251.15L69.75 250.25L67.41 249.41L64.99 248.6L62.49 247.8L59.93 246.99L57.35 246.13L54.77 245.21L52.21 244.21L49.72 243.1L47.31 241.87L45.02 240.51L42.87 239L40.89 237.35L39.1 235.55L37.52 233.59L36.16 231.5L35.03 229.27L34.13 226.93L33.46 224.48L33.02 221.93L32.79 219.32L32.75 216.65L32.89 213.95L33.18 211.24L33.59 208.53L34.08 205.83L34.63 203.17L35.2 200.55L35.76 197.98L36.28 195.48L36.71 193.03L37.05 190.66L37.25 188.34L37.3 186.08L37.19 183.87L36.9 181.71L36.43 179.57L35.78 177.46L34.96 175.35L33.98 173.25L32.85 171.12L31.6 168.98L30.26 166.8L28.86 164.58L27.43 162.31L26 160L24.61 157.64L23.3 155.23L22.1 152.77L21.05 150.28L20.17 147.77L19.49 145.23L19.04 142.69L18.83 140.16L18.87 137.65L19.17 135.17L19.74 132.74L20.56 130.36L21.62 128.05L22.92 125.82L24.42 123.67L26.11 121.61L27.95 119.63L29.91 117.73L31.97 115.92L34.08 114.17L36.21 112.48L38.34 110.84L40.41 109.24L42.42 107.65L44.32 106.06L46.11 104.45L47.75 102.81L49.24 101.11L50.58 99.35L51.75 97.5L52.76 95.56L53.62 93.53L54.34 91.39L54.95 89.14L55.45 86.79L55.87 84.35L56.25 81.82L56.6 79.21L56.96 76.56L57.35 73.87L57.81 71.16L58.35 68.48L59.01 65.83L59.8 63.24L60.75 60.75L61.86 58.37L63.14 56.13L64.61 54.06L66.26 52.16L68.08 50.46L70.08 48.95L72.23 47.66L74.53 46.58L76.96 45.7L79.49 45.02L82.11 44.52L84.79 44.19L87.52 44L90.26 43.93L93 43.95L95.72 44.03L98.4 44.14L101.02 44.25L103.58 44.32L106.06 44.32L108.46 44.24L110.78 44.03L113.01 43.69L115.16 43.2L117.25 42.54L119.27 41.71L121.24 40.7L123.17 39.52L125.07 38.19L126.97 36.71L128.86 35.11L130.78 33.42L132.72 31.65L134.7 29.84L136.73 28.04L138.82 26.26L140.96 24.55L143.17 22.94L145.44 21.47L147.77 20.17L150.14 19.06L152.57 18.18L155.02 17.53L157.51 17.13L160 17L162.49 17.13L164.98 17.53L167.43 18.18L169.86 19.06L172.23 20.17L174.56 21.47L176.83 22.94L179.04 24.55L181.18 26.26L183.27 28.04L185.3 29.84L187.28 31.65L189.22 33.42L191.14 35.11L193.03 36.71L194.93 38.19L196.83 39.52L198.76 40.7L200.73 41.71L202.75 42.54L204.84 43.2L206.99 43.69L209.22 44.03L211.54 44.24L213.94 44.32L216.42 44.32L218.98 44.25L221.6 44.14L224.28 44.03L227 43.95L229.74 43.93L232.48 44L235.21 44.19L237.89 44.52L240.51 45.02L243.04 45.7L245.47 46.58L247.77 47.66L249.92 48.95L251.92 50.46L253.74 52.16L255.39 54.06L256.86 56.13L258.14 58.37L259.25 60.75L260.2 63.24L260.99 65.83L261.65 68.48L262.19 71.16L262.65 73.87L263.04 76.56L263.4 79.21L263.75 81.82L264.13 84.35L264.55 86.79L265.05 89.14L265.66 91.39L266.38 93.53L267.24 95.56L268.25 97.5L269.42 99.35L270.76 101.11L272.25 102.81L273.89 104.45L275.68 106.06L277.58 107.65L279.59 109.24L281.66 110.84L283.79 112.48L285.92 114.17L288.03 115.92L290.09 117.73L292.05 119.63L293.89 121.61L295.58 123.67L297.08 125.82L298.38 128.05L299.44 130.36L300.26 132.74L300.83 135.17L301.13 137.65L301.17 140.16L300.96 142.69L300.51 145.23L299.83 147.77L298.95 150.28L297.9 152.77L296.7 155.23L295.39 157.64Z" fill="none" stroke="currentColor" stroke-width="9" stroke-linecap="round" stroke-linejoin="round"/>
    <g><clipPath id="above-rim"><rect x="0" y="0" width="320" height="208"/></clipPath>
    <g clip-path="url(#above-rim)"><path d="M160 216 Q214 155 160 94 Q106 155 160 216Z" fill="none" stroke="currentColor" stroke-width="9" stroke-linecap="round" stroke-linejoin="round"/><path d="M160 216 Q179.91 147.32 113.53 120.73 Q93.62 189.41 160 216Z" fill="none" stroke="currentColor" stroke-width="9" stroke-linecap="round" stroke-linejoin="round"/><path d="M160 216 Q226.38 189.41 206.47 120.73 Q140.09 147.32 160 216Z" fill="none" stroke="currentColor" stroke-width="9" stroke-linecap="round" stroke-linejoin="round"/><path d="M160 216 Q147.84 157.14 88.7 167.91 Q100.87 226.77 160 216Z" fill="none" stroke="currentColor" stroke-width="9" stroke-linecap="round" stroke-linejoin="round"/><path d="M160 216 Q219.13 226.77 231.3 167.91 Q172.16 157.14 160 216Z" fill="none" stroke="currentColor" stroke-width="9" stroke-linecap="round" stroke-linejoin="round"/><path d="M160 216 Q126.98 185.1 86.72 205.7 Q119.74 236.6 160 216Z" fill="none" stroke="currentColor" stroke-width="9" stroke-linecap="round" stroke-linejoin="round"/><path d="M160 216 Q200.26 236.6 233.28 205.7 Q193.02 185.1 160 216Z" fill="none" stroke="currentColor" stroke-width="9" stroke-linecap="round" stroke-linejoin="round"/></g>
    <clipPath id="bowl"><path d="M96 208 Q160 290 224 208Z"/></clipPath>
    <path d="M96 208 Q160 290 224 208Z" fill="#fff" fill-opacity="0" fill="none" stroke="currentColor" stroke-width="9" stroke-linecap="round" stroke-linejoin="round"/>
    <path d="M90 208 H230" fill="none" stroke="currentColor" stroke-width="9" stroke-linecap="round" stroke-linejoin="round"/>
    <path d="M96 226L100 228.74L104 229.41L108 227.52L112 224.48L116 222.59L120 223.26L124 226L128 228.74L132 229.41L136 227.52L140 224.48L144 222.59L148 223.26L152 226L156 228.74L160 229.41L164 227.52L168 224.48L172 222.59L176 223.26L180 226L184 228.74L188 229.41L192 227.52L196 224.48L200 222.59L204 223.26L208 226L212 228.74L216 229.41L220 227.52L224 224.48 M96 244L100 246.74L104 247.41L108 245.52L112 242.48L116 240.59L120 241.26L124 244L128 246.74L132 247.41L136 245.52L140 242.48L144 240.59L148 241.26L152 244L156 246.74L160 247.41L164 245.52L168 242.48L172 240.59L176 241.26L180 244L184 246.74L188 247.41L192 245.52L196 242.48L200 240.59L204 241.26L208 244L212 246.74L216 247.41L220 245.52L224 242.48 M96 262L100 264.74L104 265.41L108 263.52L112 260.48L116 258.59L120 259.26L124 262L128 264.74L132 265.41L136 263.52L140 260.48L144 258.59L148 259.26L152 262L156 264.74L160 265.41L164 263.52L168 260.48L172 258.59L176 259.26L180 262L184 264.74L188 265.41L192 263.52L196 260.48L200 258.59L204 259.26L208 262L212 264.74L216 265.41L220 263.52L224 260.48" fill="none" stroke="currentColor" stroke-width="9" stroke-linecap="round" stroke-linejoin="round" stroke-width="6.3" clip-path="url(#bowl)"/></g>
    </g>
    <path transform="translate(368 119)" d="M65.1 11.82 A39 46 0 1 0 65.1 80.18" fill="none" stroke="currentColor" stroke-width="9.5" stroke-linecap="round" stroke-linejoin="round"/>
    <path transform="translate(462 119)" d="M48 0 H0 V92 H48 M0 46 H40" fill="none" stroke="currentColor" stroke-width="9.5" stroke-linecap="round" stroke-linejoin="round"/>
    <path transform="translate(528 119)" d="M60.19 13.28 A30 23 0 1 0 33 46 A30 23 0 1 1 5.81 78.72" fill="none" stroke="currentColor" stroke-width="9.5" stroke-linecap="round" stroke-linejoin="round"/>
    <path transform="translate(610 119)" d="M0 0 H66 M33 0 V92" fill="none" stroke="currentColor" stroke-width="9.5" stroke-linecap="round" stroke-linejoin="round"/>
    <path transform="translate(692 119)" d="M0 92 L37 0 L74 92 M12 60.72 H62" fill="none" stroke="currentColor" stroke-width="9.5" stroke-linecap="round" stroke-linejoin="round"/>
    <path transform="translate(782 119)" d="M0 0 H62 L0 92 H62" fill="none" stroke="currentColor" stroke-width="9.5" stroke-linecap="round" stroke-linejoin="round"/>
    <path transform="translate(860 119)" d="M48 0 H0 V92 H48 M0 46 H40" fill="none" stroke="currentColor" stroke-width="9.5" stroke-linecap="round" stroke-linejoin="round"/>
    <path transform="translate(926 119)" d="M0 92 V0 L66 92 V0" fill="none" stroke="currentColor" stroke-width="9.5" stroke-linecap="round" stroke-linejoin="round"/>
  </g>
</svg>